<?xml version="1.0" encoding="iso-8859-1"?>
<!-- Generator: Adobe Illustrator 22.1.0, SVG Export Plug-In . SVG Version: 6.00 Build 0)  -->
<svg version="1.1" id="&#x56FE;&#x5C42;_1" xmlns="http://www.w3.org/2000/svg" xmlns:xlink="http://www.w3.org/1999/xlink" x="0px"
	 y="0px" viewBox="0 0 26 18.046" style="enable-background:new 0 0 26 18.046;" xml:space="preserve">
<g>
	<g>
		<path style="fill:#44C98B;" d="M13,5.454c-1.969,0-3.569,1.598-3.569,3.569c0,1.971,1.598,3.569,3.569,3.569
			c1.971,0,3.569-1.598,3.569-3.569C16.569,7.051,14.972,5.454,13,5.454z"/>
		<path style="fill:#44C98B;" d="M25.992,9.168c0.021-0.171,0.001-0.337-0.051-0.489c-0.004-0.012-0.012-0.021-0.017-0.033
			c-0.002-0.006-0.002-0.023-0.005-0.028C23.636,3.542,19.169,0.02,13.031,0h-0.02C6.865,0,2.401,3.476,0.107,8.54
			c-0.009,0.019-0.014,0.068-0.02,0.108c-0.03,0.079-0.069,0.153-0.08,0.241c-0.022,0.18,0.013,0.349,0.072,0.508
			c0.002,0.008,0.003,0.03,0.005,0.035c2.277,5.097,6.732,8.593,12.886,8.613h0.02c6.156,0,10.63-3.498,12.92-8.576
			c0.01-0.021,0.016-0.073,0.022-0.121C25.951,9.287,25.984,9.234,25.992,9.168z M13.003,15.05c-3.331,0-6.027-2.699-6.027-6.027
			s2.699-6.027,6.027-6.027s6.027,2.699,6.027,6.027S16.331,15.05,13.003,15.05z"/>
	</g>
</g>
<g>
	<g>
		<path style="fill:#44C98B;" d="M13,5.454c-1.969,0-3.569,1.598-3.569,3.569c0,1.971,1.598,3.569,3.569,3.569
			c1.971,0,3.569-1.598,3.569-3.569C16.569,7.051,14.972,5.454,13,5.454z"/>
		<path style="fill:#44C98B;" d="M25.992,9.168c0.021-0.171,0.001-0.337-0.051-0.489c-0.004-0.012-0.012-0.021-0.017-0.033
			c-0.002-0.006-0.002-0.023-0.005-0.028C23.636,3.542,19.169,0.02,13.031,0h-0.02C6.865,0,2.401,3.476,0.107,8.54
			c-0.009,0.019-0.014,0.068-0.02,0.108c-0.03,0.079-0.069,0.153-0.08,0.241c-0.022,0.18,0.013,0.349,0.072,0.508
			c0.002,0.008,0.003,0.03,0.005,0.035c2.277,5.097,6.732,8.593,12.886,8.613h0.02c6.156,0,10.63-3.498,12.92-8.576
			c0.01-0.021,0.016-0.073,0.022-0.121C25.951,9.287,25.984,9.234,25.992,9.168z M13.003,15.05c-3.331,0-6.027-2.699-6.027-6.027
			s2.699-6.027,6.027-6.027s6.027,2.699,6.027,6.027S16.331,15.05,13.003,15.05z"/>
	</g>
</g>
</svg>
